# xmcd CD database file
#
# Track frame offsets:
#	150
#	13713
#	28661
#	43349
#	58871
#	77887
#	96585
#	109489
#	120965
#	139336
#
# Disc length: 2386 seconds
#
# Revision: 4
# Processed by: cddbd v1.5.2PL0 Copyright (c) Steve Scherf et al.
# Submitted via: CDex 1.70beta2
#
DISCID=9009500a
DTITLE=Various Artist - Rolling Stone - New Noises Vol. 100 - Die Jubiläums-Edition mit den 10 Besten Songs von 1995 bis heute
DYEAR=2010
DGENRE=Rock
TTITLE0=Franz Ferdinand - Darts of pleasure
TTITLE1=Maxïmo Park - The coast is always changing
TTITLE2=Manic Street Preachers - His last painting
TTITLE3=Die Sterne - Was hat dich bloß so ruiniert
TTITLE4=Calexico - Sonic wind
TTITLE5=Joanna Newsom - The book of right on
TTITLE6=Bonnie "Prince" Billy - Sheep
TTITLE7=Tilman Rossmy - Bodycount T-Shirt
TTITLE8=Travis - The line is fine
TTITLE9=Jeff Buckley - Dream brother (live)
EXTD=YEAR: 2010
EXTT0=
EXTT1=
EXTT2=
EXTT3=
EXTT4=
EXTT5=
EXTT6=
EXTT7=
EXTT8=
EXTT9=
PLAYORDER=
